# xmcd
#
# Track frame offsets:
#	150
#	10565
#	29320
#	47587
#	68530
#	89098
#	109648
#	124398
#	142933
#	146998
#	164508
#	189628
#	216200
#	235118
#	250533
#	274360
#	292318
#	310748
#
# Disc length: 4416 seconds
#
# Revision: 0
# Processed by: cddbd v1.5.1PL0 Copyright (c) Steve Scherf et al.
# Submitted via: audiograbber 1.83.01
#
DISCID=0c113e12
DTITLE=R. Kelly - TP-2.com
DYEAR=2000
DGENRE=Soul
TTITLE0=TP-2
TTITLE1=Strip For You
TTITLE2=R&B Thug
TTITLE3=The Greatest Sex
TTITLE4=Just Like That
TTITLE5=Like A Real Freak
TTITLE6=Fiesta
TTITLE7=Don't You Say No
TTITLE8=The Real R. Kelly
TTITLE9=One Me
TTITLE10=I Wish
TTITLE11=A Woman's Threat
TTITLE12=I Decided
TTITLE13=I Mean (I Don't Mean It)
TTITLE14=I Wish - Remix (To The Homies That We Lost)
TTITLE15=All I Really Want
TTITLE16=Feelin' On Yo Booty
TTITLE17=The Storm Is Over Now
EXTD=
EXTT0=
EXTT1=
EXTT2=
EXTT3=
EXTT4=
EXTT5=
EXTT6=
EXTT7=
EXTT8=
EXTT9=
EXTT10=
EXTT11=
EXTT12=
EXTT13=
EXTT14=
EXTT15=
EXTT16=
EXTT17=
PLAYORDER=
